<?xml version="1.0" encoding="utf-8"?>
<!-- Generator: Adobe Illustrator 21.0.2, SVG Export Plug-In . SVG Version: 6.00 Build 0)  -->
<svg version="1.1" id="Layer_1" xmlns="http://www.w3.org/2000/svg" xmlns:xlink="http://www.w3.org/1999/xlink" x="0px" y="0px"
	 viewBox="0 0 299.7 202" style="enable-background:new 0 0 299.7 202;" xml:space="preserve">
<style type="text/css">
	.st0{fill:#FFFFFF;stroke:#C7C8CA;stroke-width:0.5;stroke-miterlimit:10;}
	.st1{fill:#C7C8CA;}
	.st2{font-family:'HelveticaNeue';}
	.st3{font-size:13px;}
	.st4{font-size:12px;}
	.st5{enable-background:new    ;}
	.st6{font-family:'ZapfDingbatsITC';}
	.st7{fill:none;}
	.st8{fill:none;stroke:#231F20;stroke-width:0.5;stroke-miterlimit:10;}
	.st9{fill:#231F20;}
</style>
<rect x="14.9" y="86.3" class="st0" width="100" height="40"/>
<rect x="14.9" y="46.3" class="st0" width="100" height="40"/>
<rect x="114.9" y="46.3" class="st0" width="100" height="40"/>
<rect x="114.9" y="86.3" class="st0" width="100" height="40"/>
<text transform="matrix(1 0 0 1 23.6772 70.4321)" class="st1 st2 st3">County</text>
<text transform="matrix(1 0 0 1 2.8936 19.8452)" class="st2 st4">Party that </text>
<text transform="matrix(1 0 0 1 2.8936 32.8452)" class="st2 st4">carried state</text>
<text transform="matrix(1 0 0 1 2.8936 146.4595)" class="st2 st4">Party that </text>
<text transform="matrix(1 0 0 1 2.8936 159.4595)" class="st2 st4">carried county </text>
<text transform="matrix(1 0 0 1 2.8936 171.4595)" class="st2 st4">+ percentage </text>
<text transform="matrix(1 0 0 1 2.8936 184.4595)" class="st2 st4">points over </text>
<text transform="matrix(1 0 0 1 2.8936 196.4595)" class="st2 st4">other party</text>
<text transform="matrix(1 0 0 1 116.0176 146.4595)" class="st2 st4">Percent of </text>
<text transform="matrix(1 0 0 1 116.0176 158.4595)" class="st2 st4">county vote </text>
<text transform="matrix(1 0 0 1 116.0176 171.4595)" class="st2 st4">for winning </text>
<text transform="matrix(1 0 0 1 116.0176 183.4595)" class="st2 st4">party</text>
<text transform="matrix(1 0 0 1 207.9175 146.4595)" class="st2 st4">Number </text>
<text transform="matrix(1 0 0 1 207.9175 158.4595)" class="st2 st4">of votes for </text>
<text transform="matrix(1 0 0 1 207.9175 170.4595)" class="st2 st4">winning party</text>
<text transform="matrix(1 0 0 1 114.9106 19.8452)" class="st2 st4">Election </text>
<text transform="matrix(1 0 0 1 114.9106 32.8452)" class="st2 st4">year</text>
<text transform="matrix(1 0 0 1 207.9175 12.8452)" class="st2 st4">Percent of state </text>
<text transform="matrix(1 0 0 1 207.9175 25.8452)" class="st2 st4">vote for winning </text>
<text transform="matrix(1 0 0 1 207.9175 37.8452)" class="st2 st4">and losing party</text>
<text transform="matrix(1 0 0 1 120.3491 64.3965)" class="st1 st2 st3">2016 </text>
<text transform="matrix(1 0 0 1 120.3491 79.9965)" class="st5"><tspan x="0" y="0" class="st1 st2 st3">DEM 48-43 </tspan><tspan x="69.6" y="0" class="st1 st6 st4">✘</tspan></text>
<text transform="matrix(1 0 0 1 23.6772 110.271)" class="st1 st2 st3">Adams</text>
<text transform="matrix(1 0 0 1 120.3491 103.0649)" class="st1 st2 st3">D+9 </text>
<text transform="matrix(1 0 0 1 120.3491 118.6649)" class="st1 st2 st3">49.9% • 96,558</text>
<g>
	<line class="st7" x1="129.2" y1="35.6" x2="132.1" y2="48.7"/>
	<g>
		<g>
			<g>
				<line class="st8" x1="129.2" y1="35.6" x2="132.3" y2="49.7"/>
				<g>
					
						<ellipse transform="matrix(0.9764 -0.2161 0.2161 0.9764 -7.586 29.7656)" class="st9" cx="132.3" cy="49.6" rx="1.9" ry="1.9"/>
				</g>
			</g>
		</g>
	</g>
</g>
<g>
	<line class="st7" x1="203.5" y1="35.6" x2="181.1" y2="64.4"/>
	<g>
		<g>
			<g>
				<line class="st8" x1="203.5" y1="35.6" x2="172.4" y2="66"/>
				<g>
					
						<ellipse transform="matrix(0.7156 -0.6985 0.6985 0.7156 3.0295 139.2152)" class="st9" cx="172.5" cy="65.9" rx="1.9" ry="1.9"/>
				</g>
			</g>
		</g>
	</g>
</g>
<g>
	<line class="st7" x1="75.4" y1="34.2" x2="116.8" y2="74.3"/>
	<g>
		<g>
			<g>
				<line class="st8" x1="75.4" y1="34.2" x2="115.5" y2="73.1"/>
				<g>
					
						<ellipse transform="matrix(0.6957 -0.7183 0.7183 0.6957 -17.303 105.1355)" class="st9" cx="115.4" cy="73" rx="1.9" ry="1.9"/>
				</g>
			</g>
		</g>
	</g>
</g>
<g>
	<line class="st7" x1="62.3" y1="141.2" x2="116.8" y2="100.8"/>
	<g>
		<g>
			<g>
				<line class="st8" x1="62.3" y1="141.2" x2="115.6" y2="99.1"/>
				<g>
					
						<ellipse transform="matrix(0.7848 -0.6198 0.6198 0.7848 -36.5969 92.9435)" class="st9" cx="115.5" cy="99.2" rx="1.9" ry="1.9"/>
				</g>
			</g>
		</g>
	</g>
</g>
<g>
	<line class="st7" x1="126" y1="135.8" x2="132.5" y2="124.1"/>
	<g>
		<g>
			<g>
				<line class="st8" x1="126" y1="135.8" x2="130.1" y2="122.7"/>
				<g>
					
						<ellipse transform="matrix(0.2997 -0.954 0.954 0.2997 -26.0533 210.0923)" class="st9" cx="130.1" cy="122.8" rx="1.9" ry="1.9"/>
				</g>
			</g>
		</g>
	</g>
</g>
<g>
	<line class="st7" x1="204.8" y1="141.2" x2="193.6" y2="124.1"/>
	<g>
		<g>
			<g>
				<line class="st8" x1="204.8" y1="141.2" x2="193.3" y2="123.6"/>
				<g>
					
						<ellipse transform="matrix(0.8365 -0.5479 0.5479 0.8365 -36.1675 126.1451)" class="st9" cx="193.3" cy="123.7" rx="1.9" ry="1.9"/>
				</g>
			</g>
		</g>
	</g>
</g>
<text transform="matrix(1 0 0 1 224.5176 72.2004)" class="st5"><tspan x="0" y="0" class="st2 st4">Party won (</tspan><tspan x="60.4" y="0" class="st6 st4">✔</tspan><tspan x="70.6" y="0" class="st2 st4">)</tspan></text>
<text transform="matrix(1 0 0 1 224.5176 84.2004)" class="st5"><tspan x="0" y="0" class="st2 st4">or lost (</tspan><tspan x="40" y="0" class="st6 st4">✘</tspan><tspan x="48.1" y="0" class="st2 st4">)</tspan></text>
<text transform="matrix(1 0 0 1 224.5176 97.2004)" class="st2 st4">general</text>
<text transform="matrix(1 0 0 1 224.5176 109.2004)" class="st2 st4">election</text>
<g>
	<g>
		<line class="st8" x1="222" y1="67.2" x2="203.2" y2="73.7"/>
		<g>
			
				<ellipse transform="matrix(0.9449 -0.3273 0.3273 0.9449 -12.9205 70.5798)" class="st9" cx="203.3" cy="73.7" rx="1.9" ry="1.9"/>
		</g>
	</g>
</g>
</svg>
