<?xml version="1.0" encoding="utf-8"?>
<!-- Generator: Adobe Illustrator 21.0.2, SVG Export Plug-In . SVG Version: 6.00 Build 0)  -->
<svg version="1.1" id="Layer_1" xmlns="http://www.w3.org/2000/svg" xmlns:xlink="http://www.w3.org/1999/xlink" x="0px" y="0px"
	 viewBox="0 0 301.7 202" style="enable-background:new 0 0 301.7 202;" xml:space="preserve">
<style type="text/css">
	.st0{fill:#FFFFFF;stroke:#C7C8CA;stroke-width:0.5;stroke-miterlimit:10;}
	.st1{fill:#C7C8CA;}
	.st2{font-family:'HelveticaNeue';}
	.st3{font-size:13px;}
	.st4{font-size:12px;}
	.st5{fill:none;}
	.st6{fill:none;stroke:#231F20;stroke-width:0.5;stroke-miterlimit:10;}
	.st7{fill:#231F20;}
</style>
<rect x="16.9" y="86.3" class="st0" width="100" height="40"/>
<rect x="16.9" y="46.3" class="st0" width="100" height="40"/>
<rect x="116.9" y="46.3" class="st0" width="100" height="40"/>
<rect x="116.9" y="86.3" class="st0" width="100" height="40"/>
<text transform="matrix(1 0 0 1 25.6772 70.4321)" class="st1 st2 st3">County</text>
<text transform="matrix(1 0 0 1 4.8936 19.8452)" class="st2 st4">Party that </text>
<text transform="matrix(1 0 0 1 4.8936 32.8452)" class="st2 st4">carried state</text>
<text transform="matrix(1 0 0 1 4.8936 146.4595)" class="st2 st4">Party that </text>
<text transform="matrix(1 0 0 1 4.8936 159.4595)" class="st2 st4">carried county </text>
<text transform="matrix(1 0 0 1 4.8936 171.4595)" class="st2 st4">+ percentage </text>
<text transform="matrix(1 0 0 1 4.8936 184.4595)" class="st2 st4">points over </text>
<text transform="matrix(1 0 0 1 4.8936 196.4595)" class="st2 st4">other party</text>
<text transform="matrix(1 0 0 1 118.0176 146.4595)" class="st2 st4">Percent of </text>
<text transform="matrix(1 0 0 1 118.0176 158.4595)" class="st2 st4">county vote </text>
<text transform="matrix(1 0 0 1 118.0176 171.4595)" class="st2 st4">for winning </text>
<text transform="matrix(1 0 0 1 118.0176 183.4595)" class="st2 st4">party</text>
<text transform="matrix(1 0 0 1 209.9175 146.4595)" class="st2 st4">Number </text>
<text transform="matrix(1 0 0 1 209.9175 158.4595)" class="st2 st4">of votes for </text>
<text transform="matrix(1 0 0 1 209.9175 170.4595)" class="st2 st4">winning party</text>
<text transform="matrix(1 0 0 1 116.9106 19.8452)" class="st2 st4">Election </text>
<text transform="matrix(1 0 0 1 116.9106 32.8452)" class="st2 st4">year</text>
<text transform="matrix(1 0 0 1 209.9175 12.8452)" class="st2 st4">Percent of state </text>
<text transform="matrix(1 0 0 1 209.9175 25.8452)" class="st2 st4">vote for winning </text>
<text transform="matrix(1 0 0 1 209.9175 37.8452)" class="st2 st4">and losing party</text>
<text transform="matrix(1 0 0 1 122.3491 64.3965)" class="st1 st2 st3">2016 </text>
<text transform="matrix(1 0 0 1 122.3491 79.9965)" class="st1 st2 st3">DEM 48-43</text>
<text transform="matrix(1 0 0 1 25.6772 110.271)" class="st1 st2 st3">Adams</text>
<text transform="matrix(1 0 0 1 122.3491 103.0649)" class="st1 st2 st3">D+9 </text>
<text transform="matrix(1 0 0 1 122.3491 118.6649)" class="st1 st2 st3">49.9% • 96,558</text>
<g>
	<line class="st5" x1="131.2" y1="35.6" x2="134.1" y2="48.7"/>
	<g>
		<line class="st6" x1="131.2" y1="35.6" x2="134.1" y2="48.7"/>
		<g>
			<circle class="st7" cx="134.1" cy="48.7" r="1.1"/>
		</g>
	</g>
</g>
<g>
	<line class="st5" x1="205.5" y1="35.6" x2="183.1" y2="64.4"/>
	<g>
		<line class="st6" x1="205.5" y1="35.6" x2="183.1" y2="64.4"/>
		<g>
			<circle class="st7" cx="183.1" cy="64.4" r="1.1"/>
		</g>
	</g>
</g>
<g>
	<line class="st5" x1="77.4" y1="34.2" x2="118.8" y2="74.3"/>
	<g>
		<line class="st6" x1="77.4" y1="34.2" x2="118.8" y2="74.3"/>
		<g>
			<circle class="st7" cx="118.8" cy="74.3" r="1.1"/>
		</g>
	</g>
</g>
<g>
	<line class="st5" x1="64.3" y1="141.2" x2="118.8" y2="100.8"/>
	<g>
		<line class="st6" x1="64.3" y1="141.2" x2="118.8" y2="100.8"/>
		<g>
			<circle class="st7" cx="118.8" cy="100.8" r="1.1"/>
		</g>
	</g>
</g>
<g>
	<line class="st5" x1="128" y1="135.8" x2="134.5" y2="124.1"/>
	<g>
		<line class="st6" x1="128" y1="135.8" x2="134.5" y2="124.1"/>
		<g>
			<circle class="st7" cx="134.5" cy="124.1" r="1.1"/>
		</g>
	</g>
</g>
<g>
	<line class="st5" x1="206.8" y1="141.2" x2="195.6" y2="124.1"/>
	<g>
		<line class="st6" x1="206.8" y1="141.2" x2="195.6" y2="124.1"/>
		<g>
			<circle class="st7" cx="195.6" cy="124.1" r="1.1"/>
		</g>
	</g>
</g>
</svg>
