<?xml version="1.0" encoding="utf-8"?>
<!-- Generator: Adobe Illustrator 15.1.0, SVG Export Plug-In . SVG Version: 6.00 Build 0)  -->
<!DOCTYPE svg PUBLIC "-//W3C//DTD SVG 1.1//EN" "http://www.w3.org/Graphics/SVG/1.1/DTD/svg11.dtd">
<svg version="1.1" id="Layer_1" xmlns="http://www.w3.org/2000/svg" xmlns:xlink="http://www.w3.org/1999/xlink" x="0px" y="0px"
	 width="297.692px" height="187.552px" viewBox="0 0 297.692 187.552" enable-background="new 0 0 297.692 187.552"
	 xml:space="preserve">
<rect x="12.911" y="76.293" fill="#FFFFFF" stroke="#C7C8CA" stroke-width="0.5" stroke-miterlimit="10" width="100" height="40"/>
<rect x="12.911" y="36.293" fill="#FFFFFF" stroke="#C7C8CA" stroke-width="0.5" stroke-miterlimit="10" width="100" height="40"/>
<rect x="112.911" y="36.293" fill="#FFFFFF" stroke="#C7C8CA" stroke-width="0.5" stroke-miterlimit="10" width="100" height="40"/>
<rect x="112.911" y="76.293" fill="#FFFFFF" stroke="#C7C8CA" stroke-width="0.5" stroke-miterlimit="10" width="100" height="40"/>
<text transform="matrix(1 0 0 1 21.6772 60.4321)" fill="#C7C8CA" font-family="'OpenSans'" font-size="13">County</text>
<text transform="matrix(1 0 0 1 0.8936 9.8452)"><tspan x="0" y="0" font-family="'OpenSans'" font-size="12">Party that </tspan><tspan x="0" y="12" font-family="'OpenSans'" font-size="12">carried state</tspan></text>
<text transform="matrix(1 0 0 1 0.8936 136.4595)"><tspan x="0" y="0" font-family="'OpenSans'" font-size="12">Party that </tspan><tspan x="0" y="12" font-family="'OpenSans'" font-size="12">carried county </tspan><tspan x="0" y="24" font-family="'OpenSans'" font-size="12">+ percentage </tspan><tspan x="0" y="36" font-family="'OpenSans'" font-size="12">points over </tspan><tspan x="0" y="48" font-family="'OpenSans'" font-size="12">other party</tspan></text>
<text transform="matrix(1 0 0 1 114.0176 136.4595)"><tspan x="0" y="0" font-family="'OpenSans'" font-size="12">Percent of </tspan><tspan x="0" y="12" font-family="'OpenSans'" font-size="12">county vote </tspan><tspan x="0" y="24" font-family="'OpenSans'" font-size="12">for winning </tspan><tspan x="0" y="36" font-family="'OpenSans'" font-size="12">party</tspan></text>
<text transform="matrix(1 0 0 1 205.9175 136.4595)"><tspan x="0" y="0" font-family="'OpenSans'" font-size="12">Number </tspan><tspan x="0" y="12" font-family="'OpenSans'" font-size="12">of votes for </tspan><tspan x="0" y="24" font-family="'OpenSans'" font-size="12">winning party</tspan></text>
<text transform="matrix(1 0 0 1 112.9106 9.8452)"><tspan x="0" y="0" font-family="'OpenSans'" font-size="12">Election </tspan><tspan x="0" y="12" font-family="'OpenSans'" font-size="12">year</tspan></text>
<text transform="matrix(1 0 0 1 205.9175 9.8452)"><tspan x="0" y="0" font-family="'OpenSans'" font-size="12">Percent of state </tspan><tspan x="0" y="12" font-family="'OpenSans'" font-size="12">vote for winning </tspan><tspan x="0" y="24" font-family="'OpenSans'" font-size="12">and losing party</tspan></text>
<text transform="matrix(1 0 0 1 118.3491 54.3965)"><tspan x="0" y="0" fill="#C7C8CA" font-family="'OpenSans'" font-size="13">2016 </tspan><tspan x="0" y="15.6" fill="#C7C8CA" font-family="'OpenSans'" font-size="13">DEM 48-43</tspan></text>
<text transform="matrix(1 0 0 1 21.6772 100.271)" fill="#C7C8CA" font-family="'OpenSans'" font-size="13">Adams</text>
<text transform="matrix(1 0 0 1 118.3491 93.0649)"><tspan x="0" y="0" fill="#C7C8CA" font-family="'OpenSans'" font-size="13">D+9 </tspan><tspan x="0" y="15.6" fill="#C7C8CA" font-family="'OpenSans'" font-size="13">49.9% • 96,558</tspan></text>
<g>
	<line x1="127.224" y1="25.614" x2="130.116" y2="38.693"/>
	<g>
		
			<line fill="none" stroke="#231F20" stroke-width="0.5" stroke-miterlimit="10" x1="127.224" y1="25.614" x2="130.116" y2="38.693"/>
		<g>
			<circle fill="#231F20" cx="130.116" cy="38.693" r="1.128"/>
		</g>
	</g>
</g>
<g>
	<line x1="201.497" y1="25.614" x2="179.068" y2="54.396"/>
	<g>
		
			<line fill="none" stroke="#231F20" stroke-width="0.5" stroke-miterlimit="10" x1="201.497" y1="25.614" x2="179.068" y2="54.396"/>
		<g>
			<circle fill="#231F20" cx="179.068" cy="54.396" r="1.128"/>
		</g>
	</g>
</g>
<g>
	<line x1="73.427" y1="24.191" x2="114.824" y2="64.32"/>
	<g>
		<line fill="none" stroke="#231F20" stroke-width="0.5" stroke-miterlimit="10" x1="73.427" y1="24.191" x2="114.824" y2="64.32"/>
		<g>
			<circle fill="#231F20" cx="114.824" cy="64.32" r="1.128"/>
		</g>
	</g>
</g>
<g>
	<line x1="60.335" y1="131.201" x2="114.824" y2="90.788"/>
	<g>
		
			<line fill="none" stroke="#231F20" stroke-width="0.5" stroke-miterlimit="10" x1="60.335" y1="131.201" x2="114.824" y2="90.788"/>
		<g>
			<circle fill="#231F20" cx="114.824" cy="90.788" r="1.128"/>
		</g>
	</g>
</g>
<g>
	<line x1="123.952" y1="125.793" x2="130.497" y2="114.125"/>
	<g>
		
			<line fill="none" stroke="#231F20" stroke-width="0.5" stroke-miterlimit="10" x1="123.952" y1="125.793" x2="130.497" y2="114.125"/>
		<g>
			<circle fill="#231F20" cx="130.497" cy="114.125" r="1.128"/>
		</g>
	</g>
</g>
<g>
	<line x1="202.824" y1="131.201" x2="191.583" y2="114.125"/>
	<g>
		
			<line fill="none" stroke="#231F20" stroke-width="0.5" stroke-miterlimit="10" x1="202.824" y1="131.201" x2="191.583" y2="114.125"/>
		<g>
			<circle fill="#231F20" cx="191.583" cy="114.125" r="1.128"/>
		</g>
	</g>
</g>
</svg>
